<svg id="Layer_1" data-name="Layer 1" xmlns="http://www.w3.org/2000/svg" viewBox="0 0 515.52 233"><defs><style>.cls-1{fill:#283a8b;}.cls-2{fill:#e4c373;}.cls-3{fill:#bce4f0;}</style></defs><path class="cls-1" d="M203.84,91.91a17.1,17.1,0,0,1-6.63-1.28,16.38,16.38,0,0,1-9-8.88,17.67,17.67,0,0,1,0-13.45A16.66,16.66,0,0,1,191.84,63a16.34,16.34,0,0,1,5.37-3.51,17.46,17.46,0,0,1,6.63-1.26,17,17,0,0,1,7.72,1.63,13.84,13.84,0,0,1,5.44,5.1l-5.17,3.68a9.44,9.44,0,0,0-3.15-3.1,9.19,9.19,0,0,0-4.84-1.21,9.79,9.79,0,0,0-4.06.83,9.28,9.28,0,0,0-3.15,2.24,10.31,10.31,0,0,0-2,3.39,12.15,12.15,0,0,0-.73,4.29,12.29,12.29,0,0,0,.73,4.3,10.34,10.34,0,0,0,2,3.44A9.22,9.22,0,0,0,199.78,85a9.79,9.79,0,0,0,4.06.83A8.8,8.8,0,0,0,209,84.51,12.77,12.77,0,0,0,212.31,81l5.27,3.63A16.26,16.26,0,0,1,212,90,16,16,0,0,1,203.84,91.91Z"/><path class="cls-1" d="M238.06,91.91a17.17,17.17,0,0,1-6.68-1.28,16.85,16.85,0,0,1,0-31.21,18,18,0,0,1,13.33,0,16.83,16.83,0,0,1,0,31.21A17.24,17.24,0,0,1,238.06,91.91Zm0-6a10,10,0,0,0,4.08-.83,9.42,9.42,0,0,0,3.2-2.27,10.06,10.06,0,0,0,2-3.44,13.06,13.06,0,0,0,0-8.61,10.16,10.16,0,0,0-2-3.44,9.42,9.42,0,0,0-3.2-2.27,10.66,10.66,0,0,0-8.2,0,9.6,9.6,0,0,0-3.17,2.27,10.16,10.16,0,0,0-2.05,3.44,13.06,13.06,0,0,0,0,8.61,10.06,10.06,0,0,0,2.05,3.44A9.6,9.6,0,0,0,233.94,85,10,10,0,0,0,238.06,85.87Z"/><path class="cls-1" d="M262.4,58.23h.68l11.51,15.54c.26.35.53.74.8,1.16s.54.81.8,1.16.52.84.77,1.26l.78-1.26a24,24,0,0,1,1.55-2.32l11.32-15.54h.68L294,91.48h-6.73l-.87-11.66c-.06-.55-.1-1.16-.12-1.82s0-1.3-.07-1.91-.07-1.42-.1-2.13c-.32.65-.66,1.26-1,1.84s-.62,1.06-1,1.62A16.66,16.66,0,0,1,283,78.94l-5.95,8h-.58l-6-7.94c-.36-.45-.72-1-1.09-1.52s-.72-1.1-1-1.62-.73-1.2-1.11-1.84c0,.71,0,1.42-.05,2.13s-.07,1.25-.1,1.91-.06,1.27-.1,1.81l-.87,11.62h-6.38Z"/><path class="cls-1" d="M300.82,58.57h6.78V91.48h-6.78Z"/><path class="cls-1" d="M322.07,64.52h-9.39V58.57h25.55v5.95h-9.39v27h-6.77Z"/><path class="cls-1" d="M343.21,58.57H365v5.95H350V75H363.2v5.8H350v4.75h15.68v6H343.21Zm11-12.39h7.45l-5,9.1h-4.94Z"/><path class="cls-1" d="M381.64,58.57h10.11a19.66,19.66,0,0,1,7,1.21,16.3,16.3,0,0,1,5.49,3.39,15.3,15.3,0,0,1,3.58,5.2,17.81,17.81,0,0,1,0,13.31,15.2,15.2,0,0,1-3.58,5.2,16.3,16.3,0,0,1-5.47,3.39,19.36,19.36,0,0,1-7,1.21H381.64Zm9.77,27a13.17,13.17,0,0,0,4.77-.78,8.59,8.59,0,0,0,3.31-2.18,8.86,8.86,0,0,0,1.94-3.31,14.55,14.55,0,0,0,0-8.47,8.86,8.86,0,0,0-1.94-3.31,8.59,8.59,0,0,0-3.31-2.18,13.17,13.17,0,0,0-4.77-.78h-3v21Z"/><path class="cls-1" d="M414.79,58.57h21.77v5.95h-15V75h13.21v5.8H421.56v4.75h15.68v6H414.79Z"/><path class="cls-1" d="M196.36,126.88a13.65,13.65,0,0,1-3.85-.51,11.26,11.26,0,0,1-3-1.36,9.52,9.52,0,0,1-2.19-1.94,11.35,11.35,0,0,1-1.48-2.3l2.65-1.42a14.89,14.89,0,0,0,1.22,1.79,7.32,7.32,0,0,0,3.72,2.52,9.23,9.23,0,0,0,2.81.38,8.36,8.36,0,0,0,2.46-.35,6.24,6.24,0,0,0,2-1,4.86,4.86,0,0,0,1.33-1.62,4.69,4.69,0,0,0,.49-2.15,5.37,5.37,0,0,0-.36-2,4.93,4.93,0,0,0-1.06-1.62,8.61,8.61,0,0,0-1.77-1.37,21.1,21.1,0,0,0-2.48-1.26l-2.39-1.11a20.31,20.31,0,0,1-2.84-1.51,9.61,9.61,0,0,1-2.08-1.77,6.91,6.91,0,0,1-1.28-2.17,7.86,7.86,0,0,1-.44-2.79,7.08,7.08,0,0,1,.59-3A6.57,6.57,0,0,1,190,98a7.18,7.18,0,0,1,2.51-1.46,9.54,9.54,0,0,1,3.15-.51,9,9,0,0,1,5,1.26,9.89,9.89,0,0,1,3.15,3.25l-2.57,1.6a8.3,8.3,0,0,0-2.17-2.35,5.71,5.71,0,0,0-3.41-.93,5,5,0,0,0-3.52,1.17,4.09,4.09,0,0,0-1.26,3.13,4.21,4.21,0,0,0,1.13,3.12,12.75,12.75,0,0,0,3.66,2.28l2.4,1.1a28.42,28.42,0,0,1,3.29,1.75,11,11,0,0,1,2.37,2,7.51,7.51,0,0,1,1.45,2.43,9,9,0,0,1,.48,3,7.73,7.73,0,0,1-.7,3.35,7.39,7.39,0,0,1-1.95,2.5,9,9,0,0,1-3,1.57A12,12,0,0,1,196.36,126.88Z"/><path class="cls-1" d="M212.21,96.41h18.33v2.83H215.4v14.09h13.51v2.83H215.4v7.53h15.76v2.83H212.21Z"/><path class="cls-1" d="M257.42,126.52h-3.76l-5.8-8.19a18.64,18.64,0,0,1-3.19.27h-3.59v7.92H237.9V96.41h6.77a16.22,16.22,0,0,1,5.42.82,10.9,10.9,0,0,1,3.9,2.3,9.61,9.61,0,0,1,2.37,3.52,12.21,12.21,0,0,1,.8,4.47,11,11,0,0,1-1.58,5.94,9.66,9.66,0,0,1-4.71,3.81Zm-12.93-10.76a13.33,13.33,0,0,0,4.34-.62,7.47,7.47,0,0,0,2.88-1.73,6.54,6.54,0,0,0,1.62-2.61,10.39,10.39,0,0,0,.51-3.28,10.55,10.55,0,0,0-.51-3.29,6.65,6.65,0,0,0-1.62-2.64,7.52,7.52,0,0,0-2.9-1.73,13.37,13.37,0,0,0-4.32-.62h-3.41v16.52Z"/><path class="cls-1" d="M260.92,96.41h3.45l8.28,20.41q.23.59.45,1.29c.14.47.29.91.44,1.33s.25,1,.4,1.46c.12-.47.25-1,.4-1.46s.26-.86.42-1.33.31-.9.46-1.29l8.24-20.41h3.23l-12.53,30.42h-.53Z"/><path class="cls-1" d="M292.58,96.41h3.23v30.11h-3.23Z"/><path class="cls-1" d="M304.18,96.41h7.31a20.21,20.21,0,0,1,6.77,1.06,14.55,14.55,0,0,1,5.14,3,13,13,0,0,1,3.25,4.76,17.57,17.57,0,0,1,0,12.4,13.36,13.36,0,0,1-3.23,4.76,14.33,14.33,0,0,1-5.14,3,20.37,20.37,0,0,1-6.79,1.06h-7.31Zm7.09,27.28a17.29,17.29,0,0,0,5.8-.89,11,11,0,0,0,4.11-2.51,10,10,0,0,0,2.44-3.87,15.75,15.75,0,0,0,0-9.91,10.16,10.16,0,0,0-2.44-3.87,11.14,11.14,0,0,0-4.11-2.51,17.29,17.29,0,0,0-5.8-.89h-3.9v24.45Z"/><path class="cls-1" d="M348,126.88a16.15,16.15,0,0,1-6-1.13,14.87,14.87,0,0,1-4.92-3.17,15.14,15.14,0,0,1-3.3-4.87,16.59,16.59,0,0,1,0-12.49,15.14,15.14,0,0,1,3.3-4.87A14.69,14.69,0,0,1,342,97.19a16.65,16.65,0,0,1,12.06,0,14.72,14.72,0,0,1,8.24,8,16.59,16.59,0,0,1,0,12.49,14.88,14.88,0,0,1-3.32,4.87,15.08,15.08,0,0,1-4.92,3.17A16.1,16.1,0,0,1,348,126.88Zm0-2.84a12.3,12.3,0,0,0,4.87-1,11.77,11.77,0,0,0,3.85-2.65,12,12,0,0,0,2.55-4,14.16,14.16,0,0,0,0-10,12.13,12.13,0,0,0-2.55-4,11.6,11.6,0,0,0-3.85-2.64,12.78,12.78,0,0,0-9.72,0,11.4,11.4,0,0,0-3.85,2.64,12.24,12.24,0,0,0-2.53,4,14.31,14.31,0,0,0,0,10,12.14,12.14,0,0,0,2.53,4,11.57,11.57,0,0,0,3.85,2.65A12.34,12.34,0,0,0,348,124Z"/><path class="cls-1" d="M389.55,126.52h-3.76l-5.8-8.19a18.64,18.64,0,0,1-3.19.27h-3.59v7.92H370V96.41h6.77a16.17,16.17,0,0,1,5.42.82,10.9,10.9,0,0,1,3.9,2.3,9.61,9.61,0,0,1,2.37,3.52,12.21,12.21,0,0,1,.8,4.47,11,11,0,0,1-1.58,5.94,9.66,9.66,0,0,1-4.71,3.81Zm-12.93-10.76a13.33,13.33,0,0,0,4.34-.62,7.47,7.47,0,0,0,2.88-1.73,6.54,6.54,0,0,0,1.62-2.61,10.39,10.39,0,0,0,.51-3.28,10.55,10.55,0,0,0-.51-3.29,6.65,6.65,0,0,0-1.62-2.64,7.52,7.52,0,0,0-2.9-1.73,13.37,13.37,0,0,0-4.32-.62h-3.41v16.52Z"/><path class="cls-1" d="M396.42,96.41h18.33v2.83H399.6v14.09h13.51v2.83H399.6v7.53h15.77v2.83H396.42Z"/><path class="cls-1" d="M429.76,126.88a13.6,13.6,0,0,1-3.85-.51,11,11,0,0,1-3-1.36,9.12,9.12,0,0,1-2.19-1.94,11.85,11.85,0,0,1-1.49-2.3l2.66-1.42a13.81,13.81,0,0,0,1.22,1.79,7.21,7.21,0,0,0,3.72,2.52,9.23,9.23,0,0,0,2.81.38,8.45,8.45,0,0,0,2.46-.35,6.24,6.24,0,0,0,2-1,4.86,4.86,0,0,0,1.33-1.62,4.69,4.69,0,0,0,.48-2.15,5.57,5.57,0,0,0-.35-2,5.1,5.1,0,0,0-1.06-1.62,9,9,0,0,0-1.78-1.37,20.16,20.16,0,0,0-2.47-1.26l-2.4-1.11A20.17,20.17,0,0,1,425,110a9.37,9.37,0,0,1-2.08-1.77,7.13,7.13,0,0,1-1.29-2.17,8.09,8.09,0,0,1-.44-2.79,7.24,7.24,0,0,1,.59-3A6.59,6.59,0,0,1,423.44,98,7.18,7.18,0,0,1,426,96.57a9.44,9.44,0,0,1,3.14-.51,9.08,9.08,0,0,1,5,1.26,9.86,9.86,0,0,1,3.14,3.25l-2.57,1.6a8.15,8.15,0,0,0-2.17-2.35,5.67,5.67,0,0,0-3.41-.93,5,5,0,0,0-3.52,1.17,4.09,4.09,0,0,0-1.26,3.13,4.25,4.25,0,0,0,1.13,3.12,13,13,0,0,0,3.67,2.28l2.4,1.1a27.44,27.44,0,0,1,3.28,1.75,11.1,11.1,0,0,1,2.38,2,7.31,7.31,0,0,1,1.44,2.43,8.76,8.76,0,0,1,.49,3,7.73,7.73,0,0,1-.71,3.35,7.15,7.15,0,0,1-1.95,2.5,8.8,8.8,0,0,1-2.94,1.57A12,12,0,0,1,429.76,126.88Z"/><polygon class="cls-1" points="236.65 127.89 245.03 127.89 239.37 138.13 233.82 138.13 236.65 127.89"/><path class="cls-1" d="M190.52,131.52h10.24a23,23,0,0,1,6.94,1,14.55,14.55,0,0,1,5.2,2.83,12.35,12.35,0,0,1,3.26,4.52,16.23,16.23,0,0,1,0,12,12.14,12.14,0,0,1-3.26,4.46,14.83,14.83,0,0,1-5.2,2.81,23,23,0,0,1-6.94,1h-2.62v8.43h-7.62Zm10,21.88c3.12,0,5.39-.62,6.8-1.88s2.13-3.14,2.13-5.68-.72-4.49-2.15-5.75-3.7-1.88-6.78-1.88h-2.4V153.4Z"/><path class="cls-1" d="M238.1,169a20.3,20.3,0,0,1-6-.84,13,13,0,0,1-4.76-2.58,12.11,12.11,0,0,1-3.16-4.33,15.14,15.14,0,0,1-1.14-6.13V131.52h7.62v23.19q0,4.08,1.79,5.77c1.2,1.12,3.07,1.69,5.61,1.69s4.34-.57,5.52-1.69,1.77-3,1.77-5.77V131.52H253v23.62a15.14,15.14,0,0,1-1.14,6.13,12.11,12.11,0,0,1-3.16,4.33,13,13,0,0,1-4.73,2.58A19.9,19.9,0,0,1,238.1,169Z"/><path class="cls-1" d="M260.58,131.52H274.9a12.69,12.69,0,0,1,4.59.76,10.14,10.14,0,0,1,3.38,2.07,8.77,8.77,0,0,1,2.1,3.05,9.74,9.74,0,0,1,.7,3.7,6.66,6.66,0,0,1-1.39,4.33,7.66,7.66,0,0,1-3.83,2.47,9.76,9.76,0,0,1,5.62,3.32,9.42,9.42,0,0,1,1.84,5.88,12.12,12.12,0,0,1-.85,4.55,10.12,10.12,0,0,1-2.44,3.62,11.54,11.54,0,0,1-3.91,2.39,14.64,14.64,0,0,1-5.19.87H260.58Zm13.5,13.66a4.41,4.41,0,0,0,3-1,3.16,3.16,0,0,0,1.11-2.53,3.37,3.37,0,0,0-1-2.53,3.72,3.72,0,0,0-2.72-1H268.2v7Zm1.14,16.66a4.86,4.86,0,0,0,3.7-1.42,5.09,5.09,0,0,0,1.36-3.7,4.86,4.86,0,0,0-1.44-3.67,5.58,5.58,0,0,0-4-1.39H268.2v10.18Z"/><path class="cls-1" d="M293.78,131.52h7.62v30.32h16.77v6.69H293.78Z"/><path class="cls-1" d="M324.48,131.52h7.62v37h-7.62Z"/><path class="cls-1" d="M357.74,169a19.36,19.36,0,0,1-7.46-1.44,18.36,18.36,0,0,1-10.09-10,19.83,19.83,0,0,1,0-15.13,18.67,18.67,0,0,1,4.05-6,18.23,18.23,0,0,1,6-3.95,19.73,19.73,0,0,1,7.46-1.42,19,19,0,0,1,8.68,1.83,15.59,15.59,0,0,1,6.13,5.74l-5.83,4.14a10.46,10.46,0,0,0-3.54-3.49,10.31,10.31,0,0,0-5.44-1.36,11,11,0,0,0-4.57.93,10.65,10.65,0,0,0-3.54,2.53,11.57,11.57,0,0,0-2.29,3.81,13.89,13.89,0,0,0-.81,4.82,14.09,14.09,0,0,0,.81,4.84,11.85,11.85,0,0,0,2.29,3.87,10.59,10.59,0,0,0,3.54,2.56,11.17,11.17,0,0,0,4.57.92,9.9,9.9,0,0,0,5.77-1.52,14.67,14.67,0,0,0,3.76-3.92l5.93,4.08a18.39,18.39,0,0,1-6.26,6A18.08,18.08,0,0,1,357.74,169Z"/><path class="cls-1" d="M396.23,169a19.52,19.52,0,0,1-7.52-1.44,19,19,0,0,1-6.07-4,18.63,18.63,0,0,1-4.08-6,19.95,19.95,0,0,1,0-15.13,18.59,18.59,0,0,1,4.08-6,19,19,0,0,1,6.07-4,20.25,20.25,0,0,1,15,0,18.89,18.89,0,0,1,6.1,4,18.59,18.59,0,0,1,4.08,6,19.83,19.83,0,0,1,0,15.13,18.63,18.63,0,0,1-4.08,6,18.87,18.87,0,0,1-6.1,4A19.54,19.54,0,0,1,396.23,169Zm0-6.8a11.38,11.38,0,0,0,4.6-.92,10.9,10.9,0,0,0,3.59-2.56,11.39,11.39,0,0,0,2.31-3.87,14.72,14.72,0,0,0,0-9.69,11.45,11.45,0,0,0-2.31-3.86,10.75,10.75,0,0,0-3.59-2.56,11.92,11.92,0,0,0-9.23,0,10.77,10.77,0,0,0-3.57,2.56,11.78,11.78,0,0,0-2.31,3.86,14.72,14.72,0,0,0,0,9.69,11.72,11.72,0,0,0,2.31,3.87,10.92,10.92,0,0,0,3.57,2.56A11.32,11.32,0,0,0,396.23,162.22Z"/><path class="cls-1" d="M432.26,169a18.18,18.18,0,0,1-4.84-.59,15.89,15.89,0,0,1-3.92-1.62,12.32,12.32,0,0,1-3-2.46,13.61,13.61,0,0,1-2.1-3l6.21-3.6a12.07,12.07,0,0,0,3,3.32,7.32,7.32,0,0,0,4.55,1.31,6.11,6.11,0,0,0,3.78-1.06,3.26,3.26,0,0,0,1.39-2.7,3.32,3.32,0,0,0-1.47-2.95,28.42,28.42,0,0,0-4.08-2.13l-1.91-.81a27.34,27.34,0,0,1-3.75-1.91,12.44,12.44,0,0,1-2.89-2.4,9.87,9.87,0,0,1-1.85-3.11,11.51,11.51,0,0,1-.65-4.09,10,10,0,0,1,.79-4,9.5,9.5,0,0,1,2.23-3.22,10.27,10.27,0,0,1,3.51-2.12,14.58,14.58,0,0,1,10.91.63,11.76,11.76,0,0,1,4.55,4.75l-5.93,3.82a7.2,7.2,0,0,0-2.13-2.51,4.85,4.85,0,0,0-2.77-.76,3.75,3.75,0,0,0-2.67.92,3.1,3.1,0,0,0-1,2.34,3.2,3.2,0,0,0,1.11,2.64,17.88,17.88,0,0,0,3.57,2l1.9.81a35.65,35.65,0,0,1,4.33,2.15,14,14,0,0,1,3.16,2.5,10,10,0,0,1,2,3.15,11.62,11.62,0,0,1,.68,4.16,10.47,10.47,0,0,1-.95,4.54,9.7,9.7,0,0,1-2.64,3.34,11.72,11.72,0,0,1-4,2A18,18,0,0,1,432.26,169Z"/><path class="cls-1" d="M193.83,184.55a5.45,5.45,0,0,1-2.07-.39,5,5,0,0,1-1.67-1.07,5.38,5.38,0,0,1-1.11-1.65,5.61,5.61,0,0,1,0-4.21,5,5,0,0,1,1.12-1.65,4.9,4.9,0,0,1,1.67-1.08,5.29,5.29,0,0,1,2-.39,5.77,5.77,0,0,1,2.39.49,4,4,0,0,1,1.75,1.55l-.85.62a3.65,3.65,0,0,0-3.29-1.7,4.05,4.05,0,0,0-1.65.33,4,4,0,0,0-2.16,2.24,4.69,4.69,0,0,0,0,3.38,4,4,0,0,0,.86,1.35,3.81,3.81,0,0,0,1.3.89,4.13,4.13,0,0,0,1.66.33,4.57,4.57,0,0,0,1.54-.24,3.4,3.4,0,0,0,1.15-.66,3,3,0,0,0,.77-.95,3.68,3.68,0,0,0,.37-1.15H194v-1h4.81a5.9,5.9,0,0,1-.36,2,4.55,4.55,0,0,1-1,1.55,4.45,4.45,0,0,1-1.57,1A5.83,5.83,0,0,1,193.83,184.55Z"/><path class="cls-1" d="M205.43,184.55a5.37,5.37,0,0,1-2-.39,4.89,4.89,0,0,1-1.66-1.07,5,5,0,0,1-1.12-1.65,5.63,5.63,0,0,1,0-4.22,5,5,0,0,1,1.12-1.65,4.89,4.89,0,0,1,1.66-1.07,5.37,5.37,0,0,1,2-.39,5.29,5.29,0,0,1,2,.39,4.95,4.95,0,0,1,2.79,2.72,5.63,5.63,0,0,1,0,4.22,4.95,4.95,0,0,1-2.79,2.72A5.29,5.29,0,0,1,205.43,184.55Zm0-1a4.05,4.05,0,0,0,1.65-.33,4,4,0,0,0,2.16-2.24,4.76,4.76,0,0,0,0-3.38,4,4,0,0,0-2.16-2.24,4.27,4.27,0,0,0-3.29,0,3.85,3.85,0,0,0-1.31.89,4.08,4.08,0,0,0-.85,1.35,4.76,4.76,0,0,0,0,3.38,4.08,4.08,0,0,0,.85,1.35,3.85,3.85,0,0,0,1.31.89A4,4,0,0,0,205.43,183.59Z"/><path class="cls-1" d="M212.88,174.23h3.46a3.54,3.54,0,0,1,1.24.2,2.38,2.38,0,0,1,.87.54,2.35,2.35,0,0,1,.52.8,2.87,2.87,0,0,1,.17,1,2.44,2.44,0,0,1-.33,1.3,1.74,1.74,0,0,1-1,.73,2.74,2.74,0,0,1,1.55.94,2.7,2.7,0,0,1,.55,1.72,3.52,3.52,0,0,1-.19,1.18,2.58,2.58,0,0,1-.61.95,2.87,2.87,0,0,1-1,.64,4,4,0,0,1-1.41.23h-3.82Zm3.53,4.19a1.56,1.56,0,0,0,1.27-.46,1.73,1.73,0,0,0,.38-1.15,1.83,1.83,0,0,0-.1-.64,1.31,1.31,0,0,0-.31-.52,1.41,1.41,0,0,0-.56-.33,2.45,2.45,0,0,0-.83-.13H214v3.23Zm.21,5.05a2.78,2.78,0,0,0,1-.16,1.93,1.93,0,0,0,.68-.43,2,2,0,0,0,.39-.66,2.66,2.66,0,0,0,.13-.82,2.1,2.1,0,0,0-.55-1.48,2.27,2.27,0,0,0-1.72-.59H214v4.14Z"/><path class="cls-1" d="M222.05,174.23h1.09v10.2h-1.09Z"/><path class="cls-1" d="M226,174.23h6.2v1h-5.13V180h4.58v1h-4.58v2.55h5.34v1H226Z"/><path class="cls-1" d="M241.28,184.43H240l-2-2.78a6.38,6.38,0,0,1-1.08.09h-1.21v2.69h-1.08v-10.2H237a5.69,5.69,0,0,1,1.84.28,3.91,3.91,0,0,1,1.32.78,3.33,3.33,0,0,1,.8,1.19,4.15,4.15,0,0,1,.27,1.52,3.71,3.71,0,0,1-.53,2,3.19,3.19,0,0,1-1.6,1.29Zm-4.38-3.65a4.5,4.5,0,0,0,1.47-.2,2.53,2.53,0,0,0,1-.59,2.19,2.19,0,0,0,.55-.88,3.31,3.31,0,0,0,.17-1.11,3.41,3.41,0,0,0-.17-1.12,2.22,2.22,0,0,0-.55-.89,2.49,2.49,0,0,0-1-.59,4.46,4.46,0,0,0-1.46-.21h-1.15v5.59Z"/><path class="cls-1" d="M245.23,177.34a2.47,2.47,0,0,1-.24-.29l-.22-.31-.24-.35c0,.14,0,.28,0,.42l0,.38c0,.13,0,.25,0,.36v6.88h-1v-10.3h.18l6.09,7.19.23.3.23.3.24.35c0-.14,0-.28,0-.42l0-.38c0-.13,0-.25,0-.35v-6.89h1v10.3h-.18Z"/><path class="cls-1" d="M258.93,184.55a5.37,5.37,0,0,1-2-.39,4.89,4.89,0,0,1-1.66-1.07,5.18,5.18,0,0,1-1.12-1.65,5.63,5.63,0,0,1,0-4.22,5.18,5.18,0,0,1,1.12-1.65,4.89,4.89,0,0,1,1.66-1.07,5.56,5.56,0,0,1,4.09,0,5,5,0,0,1,1.66,1.07,4.87,4.87,0,0,1,1.12,1.65,5.51,5.51,0,0,1,0,4.22,4.87,4.87,0,0,1-1.12,1.65,5,5,0,0,1-1.66,1.07A5.38,5.38,0,0,1,258.93,184.55Zm0-1a4.05,4.05,0,0,0,1.65-.33,3.91,3.91,0,0,0,1.3-.89,4.13,4.13,0,0,0,.87-1.35,4.91,4.91,0,0,0,0-3.38,4.13,4.13,0,0,0-.87-1.35,3.91,3.91,0,0,0-1.3-.89,4.27,4.27,0,0,0-3.29,0,3.81,3.81,0,0,0-1.3.89,4.1,4.1,0,0,0-.86,1.35,4.76,4.76,0,0,0,0,3.38,4.1,4.1,0,0,0,.86,1.35,3.81,3.81,0,0,0,1.3.89A4.07,4.07,0,0,0,258.93,183.59Z"/><path class="cls-1" d="M269.93,174.23h2.31a5.69,5.69,0,0,1,1.84.28,3.77,3.77,0,0,1,1.31.78,3.26,3.26,0,0,1,.79,1.22,4.61,4.61,0,0,1,0,3.11,3.3,3.3,0,0,1-.79,1.21,3.64,3.64,0,0,1-1.31.79,5.7,5.7,0,0,1-1.84.27H271v2.54h-1.08Zm2.25,6.7a4.42,4.42,0,0,0,1.45-.2,2.47,2.47,0,0,0,1-.6,2.27,2.27,0,0,0,.55-.91,4,4,0,0,0,0-2.31,2.3,2.3,0,0,0-.55-.9,2.71,2.71,0,0,0-1-.6,4.38,4.38,0,0,0-1.45-.22H271v5.74Z"/><path class="cls-1" d="M285.3,184.43H284l-2-2.78a6.38,6.38,0,0,1-1.08.09h-1.22v2.69h-1.07v-10.2H281a5.69,5.69,0,0,1,1.84.28,3.77,3.77,0,0,1,1.31.78,3.23,3.23,0,0,1,.81,1.19,4.15,4.15,0,0,1,.27,1.52,3.63,3.63,0,0,1-.54,2,3.12,3.12,0,0,1-1.59,1.29Zm-4.38-3.65a4.5,4.5,0,0,0,1.47-.2,2.53,2.53,0,0,0,1-.59,2.3,2.3,0,0,0,.55-.88,3.59,3.59,0,0,0,.17-1.11,3.7,3.7,0,0,0-.17-1.12,2.34,2.34,0,0,0-.55-.89,2.49,2.49,0,0,0-1-.59,4.46,4.46,0,0,0-1.46-.21h-1.16v5.59Z"/><path class="cls-1" d="M292.26,184.55a5.32,5.32,0,0,1-2-.39,4.93,4.93,0,0,1-1.67-1.07,5,5,0,0,1-1.11-1.65,5.51,5.51,0,0,1,0-4.22,5,5,0,0,1,1.11-1.65,4.93,4.93,0,0,1,1.67-1.07,5.53,5.53,0,0,1,4.08,0,5,5,0,0,1,1.66,1.07,5,5,0,0,1,1.13,1.65,5.63,5.63,0,0,1,0,4.22,5,5,0,0,1-1.13,1.65,5,5,0,0,1-1.66,1.07A5.35,5.35,0,0,1,292.26,184.55Zm0-1a4.05,4.05,0,0,0,1.65-.33,4,4,0,0,0,1.31-.89,4.1,4.1,0,0,0,.86-1.35,4.76,4.76,0,0,0,0-3.38,4.1,4.1,0,0,0-.86-1.35,4,4,0,0,0-1.31-.89,4.27,4.27,0,0,0-3.29,0,3.81,3.81,0,0,0-1.3.89,4.1,4.1,0,0,0-.86,1.35,4.91,4.91,0,0,0,0,3.38,4.1,4.1,0,0,0,.86,1.35,3.81,3.81,0,0,0,1.3.89A4.07,4.07,0,0,0,292.26,183.59Z"/><path class="cls-1" d="M298.2,174.23h1.17l2.8,6.91c.05.13.1.28.15.44l.15.45c0,.17.09.33.14.49,0-.16.08-.32.13-.49s.09-.29.14-.45l.16-.44,2.79-6.91h1.09l-4.24,10.3h-.18Z"/><path class="cls-1" d="M308.91,174.23H310v10.2h-1.1Z"/><path class="cls-1" d="M314.48,177.34a2.47,2.47,0,0,1-.24-.29c-.09-.11-.16-.21-.23-.31l-.24-.35c0,.14,0,.28.05.42l0,.38c0,.13,0,.25,0,.36v6.88h-1v-10.3H313l6.09,7.19.23.3.23.3.24.35c0-.14,0-.28,0-.42l0-.38v-7.24h1v10.3h-.18Z"/><path class="cls-1" d="M328.17,184.55a5.32,5.32,0,0,1-2-.39,4.93,4.93,0,0,1-1.67-1.07,5,5,0,0,1-1.11-1.65,5.51,5.51,0,0,1,0-4.22,5,5,0,0,1,1.11-1.65,4.93,4.93,0,0,1,1.67-1.07,5.32,5.32,0,0,1,2-.39,4.54,4.54,0,0,1,4.05,2l-.82.6a3.61,3.61,0,0,0-1.31-1.17,4.33,4.33,0,0,0-3.56-.11,3.81,3.81,0,0,0-1.3.89,4.1,4.1,0,0,0-.86,1.35,4.91,4.91,0,0,0,0,3.38,4.1,4.1,0,0,0,.86,1.35,3.81,3.81,0,0,0,1.3.89,4,4,0,0,0,1.64.33,4.12,4.12,0,0,0,2-.45,3.9,3.9,0,0,0,1.39-1.26l.84.58a4.61,4.61,0,0,1-1.74,1.54A5.43,5.43,0,0,1,328.17,184.55Z"/><path class="cls-1" d="M334.45,174.23h1.1v10.2h-1.1Z"/><path class="cls-1" d="M341.77,174.13H342l4.31,10.3h-1.14l-.68-1.71h-5.16l-.67,1.71h-1.07Zm2.28,7.67-1.8-4.53a3.54,3.54,0,0,1-.14-.39c-.05-.14-.09-.27-.13-.4l-.12-.43c-.05.15-.1.29-.14.43l-.12.4q-.08.21-.15.39l-1.8,4.53Z"/><path class="cls-1" d="M348.21,174.23h1.08v9.24h4.81v1h-5.89Z"/><path class="cls-1" d="M359.66,174.23h2.48a6.59,6.59,0,0,1,2.29.37,5,5,0,0,1,1.74,1,4.53,4.53,0,0,1,1.1,1.61,6,6,0,0,1,0,4.2,4.55,4.55,0,0,1-1.09,1.61,5,5,0,0,1-1.74,1,6.94,6.94,0,0,1-2.3.36h-2.48Zm2.4,9.24a5.77,5.77,0,0,0,2-.3,3.84,3.84,0,0,0,1.4-.85,3.43,3.43,0,0,0,.82-1.31,5.36,5.36,0,0,0,0-3.36,3.39,3.39,0,0,0-.82-1.3,3.71,3.71,0,0,0-1.4-.85,5.52,5.52,0,0,0-2-.31h-1.32v8.28Z"/><path class="cls-1" d="M369.86,174.23h6.2v1h-5.13V180h4.58v1h-4.58v2.55h5.34v1h-6.41Z"/><path class="cls-1" d="M378.55,174.23h1.07v9.24h4.82v1h-5.89Z"/><path class="cls-1" d="M394.54,184.55a5.45,5.45,0,0,1-2.07-.39,4.89,4.89,0,0,1-1.66-1.07,5.16,5.16,0,0,1-1.53-3.76,5.35,5.35,0,0,1,.41-2.1,5.18,5.18,0,0,1,1.12-1.65,4.9,4.9,0,0,1,1.67-1.08,5.29,5.29,0,0,1,2-.39,5.77,5.77,0,0,1,2.39.49,4,4,0,0,1,1.75,1.55l-.85.62a3.64,3.64,0,0,0-3.29-1.7,4.07,4.07,0,0,0-2.95,1.22,4,4,0,0,0-.86,1.35,4.69,4.69,0,0,0,0,3.38,4.1,4.1,0,0,0,.86,1.35,3.81,3.81,0,0,0,1.3.89,4.13,4.13,0,0,0,1.66.33,4.57,4.57,0,0,0,1.54-.24,3.55,3.55,0,0,0,1.16-.66,3.16,3.16,0,0,0,.76-.95,4,4,0,0,0,.38-1.15h-3.65v-1h4.81a5.9,5.9,0,0,1-.36,2,4.55,4.55,0,0,1-1,1.55,4.45,4.45,0,0,1-1.57,1A5.83,5.83,0,0,1,394.54,184.55Z"/><path class="cls-1" d="M405,184.55a4.48,4.48,0,0,1-1.44-.23,3.18,3.18,0,0,1-1.16-.67,3,3,0,0,1-.77-1.13,4,4,0,0,1-.28-1.57v-6.72h1.08v6.65a2.73,2.73,0,0,0,.69,2,2.58,2.58,0,0,0,1.88.68,2.62,2.62,0,0,0,1.89-.68,2.73,2.73,0,0,0,.69-2v-6.65h1.08V181a4.2,4.2,0,0,1-.27,1.57,3.09,3.09,0,0,1-1.94,1.8A4.5,4.5,0,0,1,405,184.55Z"/><path class="cls-1" d="M414.28,174.13h.18l4.31,10.3h-1.14l-.69-1.71h-5.15l-.68,1.71h-1.06Zm2.28,7.67-1.8-4.53q-.08-.18-.15-.39l-.12-.4-.12-.43c-.05.15-.1.29-.14.43s-.08.26-.13.4a3.54,3.54,0,0,1-.14.39l-1.8,4.53Z"/><path class="cls-1" d="M422.24,181.23l-3.86-7h1.22l2.77,5.07.16.32c.05.12.1.23.14.34s.09.25.14.38c0-.12.08-.24.13-.36s.09-.23.14-.34l.16-.34,2.76-5.07h1.12l-3.77,7v3.24h-1.11Z"/><path class="cls-1" d="M430.94,174.13h.18l4.32,10.3H434.3l-.69-1.71h-5.15l-.68,1.71h-1.06Zm2.28,7.67-1.8-4.53c-.05-.12-.09-.25-.14-.39s-.09-.27-.13-.4l-.12-.43c0,.15-.09.29-.13.43s-.08.26-.13.4a3.54,3.54,0,0,1-.14.39l-1.8,4.53Z"/><path class="cls-1" d="M440,184.55a4.3,4.3,0,0,1-1.3-.18,3.73,3.73,0,0,1-1-.45,3.36,3.36,0,0,1-.74-.66,4.12,4.12,0,0,1-.5-.78l.9-.48a4.65,4.65,0,0,0,.41.61,2.91,2.91,0,0,0,.54.51,2.4,2.4,0,0,0,.72.34,3,3,0,0,0,.95.13,2.73,2.73,0,0,0,.83-.12,2,2,0,0,0,.67-.35,1.67,1.67,0,0,0,.45-.54,1.6,1.6,0,0,0,.16-.73,1.85,1.85,0,0,0-.12-.69,1.74,1.74,0,0,0-.36-.55,3.18,3.18,0,0,0-.59-.46,6.53,6.53,0,0,0-.84-.43l-.81-.37a7.13,7.13,0,0,1-1-.51,3.26,3.26,0,0,1-.71-.6,2.39,2.39,0,0,1-.43-.74,2.69,2.69,0,0,1-.15-.94,2.37,2.37,0,0,1,.2-1,2.27,2.27,0,0,1,1.4-1.26,3.12,3.12,0,0,1,1.07-.18,3.09,3.09,0,0,1,1.69.43,3.38,3.38,0,0,1,1.06,1.1l-.87.54a2.77,2.77,0,0,0-.73-.79,1.91,1.91,0,0,0-1.15-.32,1.74,1.74,0,0,0-1.2.4,1.4,1.4,0,0,0-.42,1.06,1.38,1.38,0,0,0,.38,1.05,4.29,4.29,0,0,0,1.24.78l.81.37a9.43,9.43,0,0,1,1.11.59,3.69,3.69,0,0,1,.81.68,2.63,2.63,0,0,1,.49.82,3.05,3.05,0,0,1,.16,1,2.57,2.57,0,0,1-.24,1.13,2.5,2.5,0,0,1-.66.85,3.13,3.13,0,0,1-1,.53A4.28,4.28,0,0,1,440,184.55Z"/><path class="cls-1" d="M123,97.21,106.84,87.12,94.29,95.6l.11-42.31L80.13,67.23,80,56.76l15.2-15,27.05.55,16.31,13V67.88L122.22,54.7ZM106.82,86.08l15.26,9.54-.76-42.77,16.37,13.21V55.73L121.94,43.2l-26.39-.54L80.88,57.12,81,65.18l14.3-14L95.16,94Z"/><path class="cls-2" d="M115.44,82.13H102V59.34h13.41Zm-12.54-.87h11.67V60.21H102.9Z"/><rect class="cls-1" x="32.46" y="84.15" width="45.59" height="0.87" transform="translate(-41.47 55.38) rotate(-40.05)"/><rect class="cls-1" x="29.76" y="82.78" width="65.48" height="0.87" transform="translate(-38.55 58.32) rotate(-39.25)"/><rect class="cls-1" x="85.67" y="68.93" width="0.87" height="28.9" transform="translate(-0.63 0.65) rotate(-0.43)"/><rect class="cls-1" x="74.12" y="78.31" width="0.87" height="27.48" transform="translate(-0.73 0.59) rotate(-0.45)"/><rect class="cls-1" x="63.97" y="84.75" width="0.87" height="26.39" transform="translate(-0.81 0.54) rotate(-0.47)"/><rect class="cls-1" x="54.49" y="92.38" width="0.87" height="24.54" transform="translate(-0.92 0.49) rotate(-0.51)"/><rect class="cls-1" x="46.2" y="99.36" width="0.87" height="22.36" transform="translate(-1.07 0.46) rotate(-0.56)"/><rect class="cls-1" x="39.87" y="106.77" width="0.87" height="18.65" transform="translate(-1.35 0.48) rotate(-0.67)"/><rect class="cls-1" x="33.3" y="111.68" width="77.49" height="0.87" transform="translate(-44.87 48.16) rotate(-28.6)"/><rect class="cls-1" x="74.12" y="125.47" width="53.32" height="0.87" transform="translate(-25.73 225.94) rotate(-89.66)"/><rect class="cls-1" x="87.91" y="105.68" width="0.87" height="49.83" transform="matrix(1, 0, 0, 1, -0.29, 0.19)"/><rect class="cls-1" x="74.61" y="112.44" width="0.87" height="45.25" transform="translate(-0.33 0.18) rotate(-0.14)"/><rect class="cls-1" x="43.8" y="138.61" width="40.57" height="0.87" transform="translate(-75.34 202.32) rotate(-89.67)"/><rect class="cls-1" x="36.39" y="141.67" width="37.73" height="0.87" transform="translate(-87.17 196.52) rotate(-89.67)"/><rect class="cls-1" x="47.07" y="128.04" width="0.87" height="34.68"/><rect class="cls-1" x="39.77" y="131.42" width="0.87" height="32.28"/><rect class="cls-1" x="90.38" y="116.53" width="8.46" height="0.87" transform="translate(-36.88 43.87) rotate(-21.96)"/><rect class="cls-1" x="76.89" y="122.37" width="8.63" height="0.87" transform="translate(-38.17 36.63) rotate(-20.7)"/><rect class="cls-1" x="65.31" y="127.33" width="7.57" height="0.87" transform="translate(-44.25 36.93) rotate(-22.89)"/><rect class="cls-1" x="56.38" y="132.02" width="6.04" height="0.87" transform="matrix(0.94, -0.34, 0.34, 0.94, -41.8, 28.38)"/><rect class="cls-1" x="48.41" y="135.89" width="5.29" height="0.87" transform="translate(-46.94 28.68) rotate(-21.78)"/><rect class="cls-1" x="41.79" y="138.83" width="3.9" height="0.87" transform="translate(-47.62 25.42) rotate(-21.31)"/><rect class="cls-1" x="38.28" y="160.98" width="61.72" height="0.87" transform="translate(-26.29 14.01) rotate(-9.73)"/><rect class="cls-1" x="156.66" y="61.79" width="0.87" height="45.59" transform="translate(-8.73 150.41) rotate(-49.95)"/><rect class="cls-1" x="149.41" y="50.48" width="0.87" height="65.48" transform="translate(-9.41 146.59) rotate(-50.74)"/><rect class="cls-1" x="111.79" y="82.95" width="28.9" height="0.87" transform="translate(41.86 208.96) rotate(-89.55)"/><rect class="cls-1" x="124.06" y="91.62" width="27.48" height="0.87" transform="translate(44.68 229.13) rotate(-89.55)"/><rect class="cls-1" x="134.74" y="97.5" width="26.39" height="0.87" transform="translate(48.85 245.11) rotate(-89.55)"/><rect class="cls-1" x="145.16" y="104.21" width="24.54" height="0.87" transform="translate(51.4 261.14) rotate(-89.49)"/><rect class="cls-1" x="154.54" y="110.1" width="22.36" height="0.87" transform="translate(53.57 275.17) rotate(-89.44)"/><rect class="cls-1" x="162.72" y="115.66" width="18.65" height="0.87" transform="translate(53.94 286.77) rotate(-89.33)"/><rect class="cls-1" x="139.87" y="73.37" width="0.87" height="77.49" transform="translate(-25.27 181.68) rotate(-61.42)"/><rect class="cls-1" x="111.14" y="99.25" width="0.87" height="53.32" transform="translate(-0.77 0.69) rotate(-0.35)"/><rect class="cls-1" x="99.09" y="130.16" width="49.83" height="0.87" transform="translate(-6.84 254.35) rotate(-89.89)"/><rect class="cls-1" x="114.68" y="134.63" width="45.25" height="0.87" transform="translate(1.97 272.12) rotate(-89.89)"/><rect class="cls-1" x="147.83" y="118.77" width="0.87" height="40.57" transform="translate(-0.75 0.8) rotate(-0.31)"/><rect class="cls-1" x="156.66" y="123.24" width="0.87" height="37.73" transform="translate(-0.82 0.91) rotate(-0.33)"/><rect class="cls-1" x="164.41" y="128.04" width="0.87" height="34.68"/><rect class="cls-1" x="171.71" y="131.42" width="0.87" height="32.28"/><rect class="cls-1" x="117.3" y="112.74" width="0.87" height="8.46" transform="translate(-34.75 182.48) rotate(-68.06)"/><rect class="cls-1" x="130.71" y="118.49" width="0.87" height="8.63" transform="translate(-30.12 202) rotate(-69.27)"/><rect class="cls-1" x="142.81" y="123.98" width="0.87" height="7.57" transform="translate(-30.15 210.09) rotate(-67.13)"/><rect class="cls-1" x="152.52" y="129.43" width="0.87" height="6.04" transform="translate(-23.95 230.66) rotate(-69.93)"/><rect class="cls-1" x="160.86" y="133.68" width="0.87" height="5.29" transform="translate(-25.18 235.46) rotate(-68.2)"/><rect class="cls-1" x="167.79" y="137.32" width="0.87" height="3.9" transform="translate(-31.57 227.45) rotate(-63.44)"/><rect class="cls-1" x="142.77" y="130.55" width="0.87" height="61.72" transform="translate(-40.09 275.27) rotate(-80.27)"/><polygon class="cls-1" points="173.27 184.41 172.4 184.41 172.4 171.07 170.19 171.07 170.19 183.98 169.32 183.98 169.32 170.2 173.27 170.2 173.27 184.41"/><polygon class="cls-1" points="163.02 184.77 162.15 184.77 162.15 168.91 166.53 168.91 166.53 184.62 165.66 184.62 165.66 169.78 163.02 169.78 163.02 184.77"/><polygon class="cls-1" points="156.97 184.77 156.1 184.77 156.1 168.92 152.59 168.92 152.59 184.69 151.72 184.69 151.72 168.05 156.97 168.05 156.97 184.77"/><polygon class="cls-1" points="147.4 185.91 146.52 185.91 146.52 168.2 142.95 168.2 142.95 185.84 142.07 185.84 142.07 167.33 147.4 167.33 147.4 185.91"/><polygon class="cls-1" points="137.38 185.77 136.51 185.77 136.51 167.34 132.58 167.34 132.58 185.63 131.71 185.63 131.71 166.47 137.38 166.47 137.38 185.77"/><polygon class="cls-1" points="121.13 186.99 120.25 186.99 120.25 164.46 125.43 164.46 125.43 186.85 124.56 186.85 124.56 165.33 121.13 165.33 121.13 186.99"/><polygon class="cls-1" points="111.59 186.7 110.72 186.7 110.72 163.83 100.25 163.83 100.25 186.7 99.38 186.7 99.38 162.96 111.59 162.96 111.59 186.7"/><polygon class="cls-1" points="92.51 186.49 91.64 186.49 91.64 164.98 87.06 164.98 87.06 186.34 86.18 186.34 86.18 164.1 92.51 164.1 92.51 186.49"/><polygon class="cls-1" points="80.46 186.49 79.58 186.49 79.58 167.13 75.08 167.13 75.08 186.49 74.21 186.49 74.21 166.25 80.46 166.25 80.46 186.49"/><polygon class="cls-1" points="70.2 185.41 69.33 185.41 69.33 167.34 65.25 167.34 65.25 184.98 64.38 184.98 64.38 166.47 70.2 166.47 70.2 185.41"/><polygon class="cls-1" points="60.81 184.91 59.94 184.91 59.94 169.06 56.58 169.06 56.58 184.48 55.71 184.48 55.71 168.19 60.81 168.19 60.81 184.91"/><polygon class="cls-1" points="51.87 184.19 51 184.19 51 169.93 47.71 169.93 47.71 184.19 46.84 184.19 46.84 169.05 51.87 169.05 51.87 184.19"/><polygon class="cls-1" points="44.24 184.12 43.37 184.12 43.37 171.43 40.79 171.43 40.79 183.91 39.92 183.91 39.92 170.56 44.24 170.56 44.24 184.12"/><rect class="cls-1" x="105.54" y="96.24" width="0.87" height="59.02"/><rect class="cls-1" x="37.07" y="104.33" width="52.28" height="0.87" transform="translate(-46.18 49.95) rotate(-32.28)"/><rect class="cls-1" x="37.07" y="98.6" width="52.28" height="0.87" transform="translate(-43.12 49.06) rotate(-32.28)"/><rect class="cls-1" x="149.01" y="80.59" width="0.87" height="52.28" transform="translate(-20.57 176.14) rotate(-57.74)"/><rect class="cls-1" x="149.01" y="74.86" width="0.87" height="52.28" transform="translate(-15.73 173.47) rotate(-57.74)"/><polygon class="cls-3" points="86.5 127.95 86.7 143.84 77.65 146.16 77.38 130.18 86.5 127.95"/><polygon class="cls-3" points="45.94 142.38 46.02 154.63 41.7 155.42 41.7 144.04 45.94 142.38"/><polygon class="cls-3" points="53.94 139.49 53.79 152.61 48.96 153.89 48.69 141.66 53.94 139.49"/><polygon class="cls-3" points="62.47 136.69 62.22 150.71 56.7 152.2 56.53 138.97 62.47 136.69"/><polygon class="cls-3" points="72.94 132.44 73.94 147.98 65.58 149.78 65.96 134.79 72.94 132.44"/><rect class="cls-1" x="90.35" y="125.44" width="8.31" height="0.87" transform="translate(-36.07 37.98) rotate(-19.16)"/><rect class="cls-1" x="90.53" y="140.62" width="8.54" height="0.87" transform="translate(-34.62 30.9) rotate(-15.69)"/><rect class="cls-1" x="77.39" y="144.23" width="9.44" height="0.87" transform="translate(-32.73 24.32) rotate(-14.08)"/><rect class="cls-1" x="77.39" y="129.01" width="9.44" height="0.87" transform="translate(-29.02 23.86) rotate(-14.08)"/><rect class="cls-1" x="65.62" y="133.04" width="7.38" height="0.87" transform="translate(-39.97 30.14) rotate(-19.16)"/><rect class="cls-1" x="65.34" y="148.2" width="8.74" height="0.87" transform="translate(-39.23 25.82) rotate(-16.45)"/><rect class="cls-1" x="56.6" y="151.27" width="5.95" height="0.87" transform="translate(-38.05 21.19) rotate(-15.36)"/><rect class="cls-1" x="48.85" y="153.14" width="5.18" height="0.87" transform="translate(-35.53 16.94) rotate(-13.96)"/><rect class="cls-1" x="41.49" y="142.43" width="4.62" height="0.87" transform="translate(-44.69 22.46) rotate(-19.27)"/><rect class="cls-1" x="41.72" y="155" width="4.53" height="0.87" transform="translate(-34.79 14.4) rotate(-13.38)"/><rect class="cls-1" x="48.37" y="139.89" width="5.69" height="0.87" transform="translate(-45.84 26.78) rotate(-20.47)"/><rect class="cls-1" x="56.18" y="137" width="6.38" height="0.87" transform="translate(-44.65 29.76) rotate(-20.65)"/><polygon class="cls-3" points="98.56 124.83 98.83 139.55 90.66 141.84 90.75 127.48 98.56 124.83"/><polygon class="cls-3" points="126.22 126.59 126.02 142.48 135.06 144.79 135.33 128.82 126.22 126.59"/><polygon class="cls-3" points="166.77 141.02 166.7 153.27 171.02 154.06 171.02 142.68 166.77 141.02"/><polygon class="cls-3" points="158.78 138.13 158.92 151.25 163.76 152.53 164.03 140.3 158.78 138.13"/><polygon class="cls-3" points="150.25 135.33 150.5 149.35 156.02 150.84 156.19 137.61 150.25 135.33"/><polygon class="cls-3" points="139.78 131.08 138.78 146.62 147.14 148.42 146.76 133.43 139.78 131.08"/><rect class="cls-1" x="117.77" y="120.36" width="0.87" height="8.31" transform="translate(-38.19 195.34) rotate(-70.85)"/><rect class="cls-1" x="117.48" y="135.43" width="0.87" height="8.54" transform="translate(-48.44 215.5) rotate(-74.33)"/><rect class="cls-1" x="130.18" y="138.59" width="0.87" height="9.44" transform="translate(-40.11 235.24) rotate(-75.95)"/><rect class="cls-1" x="130.18" y="123.36" width="0.87" height="9.44" transform="translate(-25.34 223.7) rotate(-75.95)"/><rect class="cls-1" x="142.97" y="128.43" width="0.87" height="7.38" transform="translate(-28.47 224.19) rotate(-70.83)"/><rect class="cls-1" x="142.57" y="142.91" width="0.87" height="8.74" transform="translate(-38.71 242.77) rotate(-73.57)"/><rect class="cls-1" x="152.71" y="147.37" width="0.87" height="5.95" transform="translate(-32.38 258.23) rotate(-74.65)"/><rect class="cls-1" x="160.85" y="149.62" width="0.87" height="5.18" transform="translate(-25.38 271.95) rotate(-76.02)"/><rect class="cls-1" x="168.48" y="139.2" width="0.87" height="4.62" transform="translate(-20.45 254.19) rotate(-70.71)"/><rect class="cls-1" x="168.3" y="151.82" width="0.87" height="4.53" transform="translate(-20.26 282.5) rotate(-76.6)"/><rect class="cls-1" x="161.07" y="136.12" width="0.87" height="5.69" transform="translate(-25.19 241.65) rotate(-69.52)"/><rect class="cls-1" x="152.91" y="132.89" width="0.87" height="6.38" transform="translate(-28.03 231.66) rotate(-69.37)"/><polygon class="cls-3" points="114.16 123.47 113.89 138.19 122.06 140.47 121.97 126.12 114.16 123.47"/><polyline class="cls-3" points="57.45 93.09 61.38 90.4 61.37 99.05 57.45 99.05"/><polyline class="cls-3" points="41.06 103.71 44.99 101.02 44.98 109.66 41.06 109.66"/><polyline class="cls-3" points="44.98 109.66 41.1 112.06 41.06 103.71"/><polyline class="cls-3" points="48.66 98.91 52.59 96.22 52.57 104.86 48.66 104.86"/><polyline class="cls-3" points="52.57 104.86 48.7 107.26 48.66 98.91"/><polyline class="cls-3" points="61.37 99.05 57.49 101.44 57.45 93.09"/><polyline class="cls-3" points="67.56 86.19 71.49 83.5 71.47 92.14 67.56 92.14"/><polyline class="cls-3" points="71.47 92.14 67.6 94.54 67.56 86.19"/><polyline class="cls-3" points="78.03 78.95 81.96 76.26 81.94 84.91 78.03 84.91"/><polyline class="cls-3" points="81.94 84.91 78.07 87.3 78.03 78.95"/><polyline class="cls-3" points="154.12 93.5 150.19 90.81 150.21 99.45 154.12 99.45"/><polyline class="cls-3" points="170.51 104.11 166.58 101.42 166.6 110.07 170.51 110.07"/><polyline class="cls-3" points="166.6 110.07 170.47 112.47 170.51 104.11"/><polyline class="cls-3" points="162.92 99.32 158.99 96.63 159 105.27 162.92 105.27"/><polyline class="cls-3" points="159 105.27 162.88 107.67 162.92 99.32"/><polyline class="cls-3" points="150.21 99.45 154.08 101.85 154.12 93.5"/><polyline class="cls-3" points="144.02 86.59 140.09 83.9 140.1 92.55 144.02 92.55"/><polyline class="cls-3" points="140.1 92.55 143.98 94.94 144.02 86.59"/><polyline class="cls-3" points="133.55 79.36 129.62 76.67 129.63 85.31 133.55 85.31"/><polyline class="cls-3" points="129.63 85.31 133.51 87.71 133.55 79.36"/></svg>